<?xml version="1.0" encoding="UTF-8" standalone="no"?>
<!-- Created with Inkscape (http://www.inkscape.org/) -->

<svg
   version="1.1"
   id="svg1"
   width="356"
   height="466"
   viewBox="0 0 356 466"
   sodipodi:docname="jiji1.svg"
   inkscape:version="1.4.2 (2aeb623e1d, 2025-05-12)"
   xmlns:inkscape="http://www.inkscape.org/namespaces/inkscape"
   xmlns:sodipodi="http://sodipodi.sourceforge.net/DTD/sodipodi-0.dtd"
   xmlns="http://www.w3.org/2000/svg"
   xmlns:svg="http://www.w3.org/2000/svg">
  <defs
     id="defs1" />
  <sodipodi:namedview
     id="namedview1"
     pagecolor="#ffffff"
     bordercolor="#000000"
     borderopacity="0.25"
     inkscape:showpageshadow="2"
     inkscape:pageopacity="0.0"
     inkscape:pagecheckerboard="0"
     inkscape:deskcolor="#d1d1d1"
     showgrid="false"
     inkscape:zoom="1.723176"
     inkscape:cx="177.86924"
     inkscape:cy="233"
     inkscape:window-width="1854"
     inkscape:window-height="1011"
     inkscape:window-x="1986"
     inkscape:window-y="32"
     inkscape:window-maximized="1"
     inkscape:current-layer="g1" />
  <g
     inkscape:groupmode="layer"
     inkscape:label="Image"
     id="g1">
    <g
       id="g8"
       transform="translate(-0.5803221,-3.4819428)">
      <path
         style="fill:#e5e5a0"
         d="m 91,459 v -5 h -5 -5 v -5 -5 h -5 -5 v -5 -5 h -5 -5 v -25 -25 h 5 5 v -50 -50 h 5 5 v -15 -15 h 5 5 v -10 -10 h 5 5 v -5 -5 H 91 81 v -5 -5 H 71 61 v -5 -5 h -5 -5 v -5 -5 H 41 31 v 5 5 H 21 11 v 5 5 H 6 1 v -5 -5 h 5 5 v -5 -5 h 10 10 v -5 -5 h 5 5 v -20 -20 h 5 5 v -5 -5 H 46 41 V 124 114 H 36 31 V 79 44 h 5 5 V 34 24 h 5 5 V 14 4 h 10 10 v 5 5 h 5 5 v 5 5 h 5 5 v 15 15 h 5 5 v 10 10 h 5 5 v 15 15 h 15 15 V 89 74 h 5 5 V 64 54 h 5 5 V 39 24 h 5 5 v -5 -5 h 5 5 V 9 4 h 10 10 v 10 10 h 5 5 v 10 10 h 5 5 v 35 35 h -5 -5 v 10 10 h -5 -5 v 5 5 h 5 5 v 20 20 h 5 5 v 5 5 h 10 10 v 5 5 h 5 5 v 5 5 h -5 -5 v -5 -5 h -10 -10 v -5 -5 h -10 -10 v 5 5 h -5 -5 v 5 5 h -10 -10 v 5 5 h -10 -10 v 5 5 h 5 5 v 10 10 h 5 5 v 15 15 h 5 5 v 25 25 h 5 5 v 5 5 h 5 5 v 10 10 h 10 10 v -5 -5 h 5 5 v -5 -5 h 5 5 v -5 -5 h 5 5 v -5 -5 h 5 5 v -5 -5 h 5 5 v -10 -10 h 5 5 v -10 -10 h 5 5 v -10 -10 h 5 5 v -5 -5 h 5 5 v -5 -5 h 5 5 v -5 -5 h 10 10 v 5 5 h 5 5 v 10 10 h -5 -5 v 5 5 h -5 -5 v 10 10 h -5 -5 v 5 5 h -5 -5 v 5 5 h -5 -5 v 10 10 h -5 -5 v 10 10 h -5 -5 v 5 5 h -5 -5 v 5 5 h -5 -5 v 5 5 h -5 -5 v 5 5 h -10 -10 v 5 5 h -10 -10 v 20 20 h -5 -5 v 5 5 h -15 -15 v 5 5 h -5 -5 v 5 5 h -15 -15 v -10 -10 h -5 -5 v 10 10 H 106 91 Z M 81,139 v -5 h 5 5 v -5 -5 h -5 -5 v 5 5 h -5 -5 v 5 5 h 5 5 z m 70,0 v -5 h 5 5 v -5 -5 h -5 -5 v 5 5 h -5 -5 v 5 5 h 5 5 z M 11,159 v -5 H 6 1 v -5 -5 h 5 5 v 5 5 h 10 10 v 5 5 H 21 11 Z m 210,0 v -5 h 10 10 v -5 -5 h 5 5 v 5 5 h -5 -5 v 5 5 h -10 -10 z"
         id="path14" />
      <path
         style="fill:#cdd974"
         d="m 91,459 v -5 h -5 -5 v -5 -5 h -5 -5 v -5 -5 h -5 -5 v -25 -25 h 5 5 v -50 -50 h 5 5 v -15 -15 h 5 5 v -10 -10 h 5 5 v -5 -5 H 91 81 v -5 -5 H 71 61 v -5 -5 h -5 -5 v -5 -5 H 41 31 v 5 5 H 21 11 v 5 5 H 6 1 v -5 -5 h 5 5 v -5 -5 h 10 10 v -5 -5 h 5 5 v -20 -20 h 5 5 v -5 -5 H 46 41 V 124 114 H 36 31 V 79 44 h 5 5 V 34 24 h 5 5 V 14 4 h 10 10 v 5 5 h 5 5 v 5 5 h 5 5 v 15 15 h 5 5 v 10 10 h 5 5 v 15 15 h 15 15 V 89 74 h 5 5 V 64 54 h 5 5 V 39 24 h 5 5 v -5 -5 h 5 5 V 9 4 h 10 10 v 10 10 h 5 5 v 10 10 h 5 5 v 35 35 h -5 -5 v 10 10 h -5 -5 v 5 5 h 5 5 v 20 20 h 5 5 v 5 5 h 10 10 v 5 5 h 5 5 v 5 5 h -5 -5 v -5 -5 h -10 -10 v -5 -5 h -10 -10 v 5 5 h -5 -5 v 5 5 h -10 -10 v 5 5 h -10 -10 v 5 5 h 5 5 v 10 10 h 5 5 v 15 15 h 5 5 v 25 25 h 5 5 v 5 5 h 5 5 v 10 10 h 10 10 v -5 -5 h 5 5 v -5 -5 h 5 5 v -5 -5 h 5 5 v -5 -5 h 5 5 v -5 -5 h 5 5 v -10 -10 h 5 5 v -10 -10 h 5 5 v -10 -10 h 5 5 v -5 -5 h 5 5 v -5 -5 h 5 5 v -5 -5 h 10 10 v 5 5 h 5 5 v 10 10 h -5 -5 v 5 5 h -5 -5 v 10 10 h -5 -5 v 5 5 h -5 -5 v 5 5 h -5 -5 v 10 10 h -5 -5 v 10 10 h -5 -5 v 5 5 h -5 -5 v 5 5 h -5 -5 v 5 5 h -5 -5 v 5 5 h -10 -10 v 5 5 h -10 -10 v 20 20 h -5 -5 v 5 5 h -15 -15 v 5 5 h -5 -5 v 5 5 h -15 -15 v -10 -10 h -5 -5 v 10 10 H 106 91 Z M 81,179 v -5 h 5 5 v -20 -20 h 5 5 v 10 10 h 5 5 v -10 -10 h -5 -5 v -5 -5 H 91 81 v 5 5 h -5 -5 v 5 5 h -5 -5 v 15 15 h 5 5 v 5 5 h 5 5 z m 80,0 v -5 h 5 5 v -5 -5 h 5 5 v -5 -5 h 5 5 v -5 -5 h -5 -5 v -5 -5 h -5 -5 v -5 -5 h -10 -10 v 5 5 h -5 -5 v 20 20 h 5 5 v 5 5 h 5 5 z m -10,-30 v -15 h 5 5 v 15 15 h -5 -5 z M 11,159 v -5 H 6 1 v -5 -5 h 5 5 v 5 5 h 10 10 v 5 5 H 21 11 Z m 210,0 v -5 h 10 10 v -5 -5 h 5 5 v 5 5 h -5 -5 v 5 5 h -10 -10 z"
         id="path13" />
      <path
         style="fill:#8a81b3"
         d="m 91,459 v -5 h -5 -5 v -5 -5 h -5 -5 v -5 -5 h -5 -5 v -25 -25 h 5 5 v -50 -50 h 5 5 v -15 -15 h 5 5 v -10 -10 h 5 5 v -5 -5 H 91 81 v -5 -5 H 71 61 v -5 -5 h -5 -5 v -5 -5 H 41 31 v 5 5 H 21 11 v 5 5 H 6 1 v -5 -5 h 5 5 v -5 -5 h 10 10 v -5 -5 h 5 5 v -20 -20 h 5 5 v -5 -5 H 46 41 V 124 114 H 36 31 V 79 44 h 5 5 V 34 24 h 5 5 V 14 4 h 10 10 v 5 5 h 5 5 v 5 5 h 5 5 v 15 15 h 5 5 v 10 10 h 5 5 v 15 15 h 15 15 V 89 74 h 5 5 V 64 54 h 5 5 V 39 24 h 5 5 v -5 -5 h 5 5 V 9 4 h 10 10 v 10 10 h 5 5 v 10 10 h 5 5 v 35 35 h -5 -5 v 10 10 h -5 -5 v 5 5 h 5 5 v 20 20 h 5 5 v 5 5 h 10 10 v 5 5 h 5 5 v 5 5 h -5 -5 v -5 -5 h -10 -10 v -5 -5 h -10 -10 v 5 5 h -5 -5 v 5 5 h -10 -10 v 5 5 h -10 -10 v 5 5 h 5 5 v 10 10 h 5 5 v 15 15 h 5 5 v 25 25 h 5 5 v 5 5 h 5 5 v 10 10 h 10 10 v -5 -5 h 5 5 v -5 -5 h 5 5 v -5 -5 h 5 5 v -5 -5 h 5 5 v -5 -5 h 5 5 v -10 -10 h 5 5 v -10 -10 h 5 5 v -10 -10 h 5 5 v -5 -5 h 5 5 v -5 -5 h 5 5 v -5 -5 h 10 10 v 5 5 h 5 5 v 10 10 h -5 -5 v 5 5 h -5 -5 v 10 10 h -5 -5 v 5 5 h -5 -5 v 5 5 h -5 -5 v 10 10 h -5 -5 v 10 10 h -5 -5 v 5 5 h -5 -5 v 5 5 h -5 -5 v 5 5 h -5 -5 v 5 5 h -10 -10 v 5 5 h -10 -10 v 20 20 h -5 -5 v 5 5 h -15 -15 v 5 5 h -5 -5 v 5 5 h -15 -15 v -10 -10 h -5 -5 v 10 10 H 106 91 Z m 10,-280 v -5 h 5 5 v -20 -20 h -5 -5 v -5 -5 H 91 81 v 5 5 h -5 -5 v 5 5 h -5 -5 v 15 15 h 5 5 v 5 5 h 15 15 z M 91,149 v -15 h 5 5 v 15 15 h -5 -5 z m 90,30 v -5 h 5 5 v -15 -15 h -5 -5 v -5 -5 h -5 -5 v -5 -5 h -10 -10 v 5 5 h -5 -5 v 20 20 h 5 5 v 5 5 h 15 15 z m -30,-30 v -15 h 5 5 v 15 15 h -5 -5 z M 11,159 v -5 H 6 1 v -5 -5 h 5 5 v 5 5 h 10 10 v 5 5 H 21 11 Z m 210,0 v -5 h 10 10 v -5 -5 h 5 5 v 5 5 h -5 -5 v 5 5 h -10 -10 z"
         id="path12" />
      <path
         style="fill:#685f98"
         d="m 91,459 v -5 h -5 -5 v -5 -5 h -5 -5 v -5 -5 h -5 -5 v -25 -25 h 5 5 v -50 -50 h 5 5 v -15 -15 h 5 5 v -10 -10 h 5 5 v -5 -5 H 91 81 v -5 -5 H 71 61 v -5 -5 h -5 -5 v -5 -5 H 41 31 v 5 5 H 21 11 v 5 5 H 6 1 v -5 -5 h 5 5 v -5 -5 h 10 10 v -5 -5 h 5 5 v -20 -20 h 5 5 v -5 -5 H 46 41 V 124 114 H 36 31 V 79 44 h 5 5 V 34 24 h 5 5 v 10 10 h -5 -5 v 35 35 h 5 5 v 5 5 h 5 5 V 109 94 h 5 5 V 79 64 H 66 61 V 39 14 H 56 51 V 9 4 h 10 10 v 5 5 h 5 5 v 5 5 h 5 5 v 15 15 h 5 5 v 10 10 h 5 5 v 15 15 h 15 15 V 89 74 h 5 5 V 64 54 h 5 5 V 39 24 h 5 5 v -5 -5 h 5 5 V 9 4 h 10 10 v 5 5 h -5 -5 v 30 30 h -5 -5 v 10 10 h 5 5 v 5 5 h 5 5 v -5 -5 h 5 5 V 69 44 h -5 -5 V 34 24 h 5 5 v 10 10 h 5 5 v 35 35 h -5 -5 v 10 10 h -5 -5 v 5 5 h 5 5 v 20 20 h 5 5 v 5 5 h 10 10 v 5 5 h 5 5 v 5 5 h -5 -5 v -5 -5 h -10 -10 v -5 -5 h -10 -10 v 5 5 h -5 -5 v 5 5 h -10 -10 v 5 5 h -10 -10 v 5 5 h 5 5 v 10 10 h 5 5 v 15 15 h 5 5 v 25 25 h 5 5 v 5 5 h 5 5 v 10 10 h 10 10 v -5 -5 h 5 5 v -5 -5 h 5 5 v -5 -5 h 5 5 v -5 -5 h 5 5 v -5 -5 h 5 5 v -10 -10 h 5 5 v -10 -10 h 5 5 v -10 -10 h 5 5 v -5 -5 h 5 5 v -5 -5 h 5 5 v -5 -5 h 10 10 v 5 5 h 5 5 v 10 10 h -5 -5 v 5 5 h -5 -5 v 10 10 h -5 -5 v 5 5 h -5 -5 v 5 5 h -5 -5 v 10 10 h -5 -5 v 10 10 h -5 -5 v 5 5 h -5 -5 v 5 5 h -5 -5 v 5 5 h -5 -5 v 5 5 h -10 -10 v 5 5 h -10 -10 v 20 20 h -5 -5 v 5 5 h -15 -15 v 5 5 h -5 -5 v 5 5 h -15 -15 v -10 -10 h -5 -5 v 10 10 H 106 91 Z m 10,-280 v -5 h 5 5 v -20 -20 h -5 -5 v -5 -5 H 91 81 v 5 5 h -5 -5 v 5 5 h -5 -5 v 15 15 h 5 5 v 5 5 h 15 15 z M 91,149 v -15 h 5 5 v 15 15 h -5 -5 z m 90,30 v -5 h 5 5 v -15 -15 h -5 -5 v -5 -5 h -5 -5 v -5 -5 h -10 -10 v 5 5 h -5 -5 v 20 20 h 5 5 v 5 5 h 15 15 z m -30,-30 v -15 h 5 5 v 15 15 h -5 -5 z M 11,159 v -5 H 6 1 v -5 -5 h 5 5 v 5 5 h 10 10 v 5 5 H 21 11 Z m 210,0 v -5 h 10 10 v -5 -5 h 5 5 v 5 5 h -5 -5 v 5 5 h -10 -10 z"
         id="path11" />
      <path
         style="fill:#272727"
         d="m 91,459 v -5 h -5 -5 v -5 -5 h -5 -5 v -5 -5 h -5 -5 v -25 -25 h 5 5 v -50 -50 h 5 5 v -15 -15 h 5 5 v -10 -10 h 5 5 v -5 -5 H 91 81 v -5 -5 H 71 61 v -5 -5 h -5 -5 v -5 -5 H 41 31 v 5 5 H 21 11 v 5 5 H 6 1 v -5 -5 h 5 5 v -5 -5 h 10 10 v -5 -5 h 5 5 v -20 -20 h 5 5 v -5 -5 H 46 41 V 124 114 H 36 31 V 79 44 h 5 5 V 34 24 h 5 5 v 10 10 h -5 -5 v 35 35 h 5 5 v 5 5 h 5 5 v -5 -5 h 5 5 v -5 -5 h 5 5 V 79 54 H 76 71 V 39 24 H 66 61 V 19 14 H 56 51 V 9 4 h 10 10 v 5 5 h 5 5 v 5 5 h 5 5 v 15 15 h 5 5 v 10 10 h 5 5 v 15 15 h 15 15 V 89 74 h 5 5 V 64 54 h 5 5 V 39 24 h 5 5 v -5 -5 h 5 5 V 9 4 h 10 10 v 5 5 h -5 -5 v 5 5 h -5 -5 v 20 20 h -5 -5 v 20 20 h 5 5 v 5 5 h 5 5 v 5 5 h 5 5 v -5 -5 h 5 5 V 79 44 h -5 -5 V 34 24 h 5 5 v 10 10 h 5 5 v 35 35 h -5 -5 v 10 10 h -5 -5 v 5 5 h 5 5 v 20 20 h 5 5 v 5 5 h 10 10 v 5 5 h 5 5 v 5 5 h -5 -5 v -5 -5 h -10 -10 v -5 -5 h -10 -10 v 5 5 h -5 -5 v 5 5 h -10 -10 v 5 5 h -10 -10 v 5 5 h 5 5 v 10 10 h 5 5 v 15 15 h 5 5 v 25 25 h 5 5 v 5 5 h 5 5 v 10 10 h 10 10 v -5 -5 h 5 5 v -5 -5 h 5 5 v -5 -5 h 5 5 v -5 -5 h 5 5 v -5 -5 h 5 5 v -10 -10 h 5 5 v -10 -10 h 5 5 v -10 -10 h 5 5 v -5 -5 h 5 5 v -5 -5 h 5 5 v -5 -5 h 10 10 v 5 5 h 5 5 v 10 10 h -5 -5 v 5 5 h -5 -5 v 10 10 h -5 -5 v 5 5 h -5 -5 v 5 5 h -5 -5 v 10 10 h -5 -5 v 10 10 h -5 -5 v 5 5 h -5 -5 v 5 5 h -5 -5 v 5 5 h -5 -5 v 5 5 h -10 -10 v 5 5 h -10 -10 v 20 20 h -5 -5 v 5 5 h -15 -15 v 5 5 h -5 -5 v 5 5 h -15 -15 v -10 -10 h -5 -5 v 10 10 H 106 91 Z m 10,-280 v -5 h 5 5 v -20 -20 h -5 -5 v -5 -5 H 91 81 v 5 5 h -5 -5 v 5 5 h -5 -5 v 15 15 h 5 5 v 5 5 h 15 15 z M 91,149 v -15 h 5 5 v 15 15 h -5 -5 z m 90,30 v -5 h 5 5 v -15 -15 h -5 -5 v -5 -5 h -5 -5 v -5 -5 h -10 -10 v 5 5 h -5 -5 v 20 20 h 5 5 v 5 5 h 15 15 z m -30,-30 v -15 h 5 5 v 15 15 h -5 -5 z m -20,20 v -5 h -5 -5 v 5 5 h 5 5 z M 11,159 v -5 H 6 1 v -5 -5 h 5 5 v 5 5 h 10 10 v 5 5 H 21 11 Z m 210,0 v -5 h 10 10 v -5 -5 h 5 5 v 5 5 h -5 -5 v 5 5 h -10 -10 z"
         id="path10" />
      <path
         style="fill:#0f120e"
         d="m 91,459 v -5 h -5 -5 v -5 -5 h -5 -5 v -5 -5 h -5 -5 v -25 -25 h 5 5 v -50 -50 h 5 5 v -15 -15 h 5 5 v -10 -10 h 5 5 v -5 -5 H 91 81 v -5 -5 H 71 61 v -5 -5 h -5 -5 v -5 -5 H 41 31 v 5 5 H 21 11 v 5 5 H 6 1 v -5 -5 h 5 5 v -5 -5 h 10 10 v -5 -5 h 5 5 v -20 -20 h 5 5 v 25 25 h 5 5 v 5 5 h 10 10 v 5 5 h 30 30 v -5 -5 h 10 10 v -5 -5 h 10 10 v -5 -5 h 5 5 v -20 -20 h -5 -5 v -15 -15 h -5 -5 v -5 -5 h -5 -5 v -5 -5 h 5 5 v 5 5 h 5 5 v 5 5 h 5 5 v 5 5 h 5 5 v -5 -5 h 5 5 V 79 44 h -5 -5 V 34 24 h 5 5 v 10 10 h 5 5 v 35 35 h -5 -5 v 10 10 h -5 -5 v 5 5 h 5 5 v 20 20 h 5 5 v 5 5 h 10 10 v 5 5 h 5 5 v 5 5 h -5 -5 v -5 -5 h -10 -10 v -5 -5 h -10 -10 v 5 5 h -5 -5 v 5 5 h -10 -10 v 5 5 h -10 -10 v 5 5 h 5 5 v 10 10 h 5 5 v 15 15 h 5 5 v 25 25 h 5 5 v 5 5 h 5 5 v 10 10 h 5 5 v 5 5 h 15 15 v -5 -5 h 5 5 v -5 -5 h 5 5 v -5 -5 h 5 5 v -5 -5 h 5 5 v -10 -10 h -5 -5 v 5 5 h -5 -5 v 5 5 h -5 -5 v 5 5 h -5 -5 v 5 5 h -5 -5 v 5 5 h -5 -5 v -5 -5 h 5 5 v -5 -5 h 5 5 v -5 -5 h 5 5 v -5 -5 h 5 5 v -5 -5 h 5 5 v -10 -10 h 5 5 v 10 10 h 5 5 v -10 -10 h 5 5 v -5 -5 h 5 5 v -10 -10 h 5 5 v -5 -5 h 5 5 v -5 -5 h 5 5 v -5 -5 h -10 -10 v 5 5 h -5 -5 v 5 5 h -5 -5 v 5 5 h -5 -5 v -5 -5 h 5 5 v -5 -5 h 5 5 v -5 -5 h 5 5 v -5 -5 h 10 10 v 5 5 h 5 5 v 10 10 h -5 -5 v 5 5 h -5 -5 v 10 10 h -5 -5 v 5 5 h -5 -5 v 5 5 h -5 -5 v 10 10 h -5 -5 v 10 10 h -5 -5 v 5 5 h -5 -5 v 5 5 h -5 -5 v 5 5 h -5 -5 v 5 5 h -10 -10 v 5 5 h -10 -10 v 20 20 h -5 -5 v 5 5 h -15 -15 v 5 5 h -5 -5 v 5 5 h -15 -15 v -5 -5 h 5 5 v -5 -5 h 5 5 v -40 -40 h 5 5 v -35 -35 h -5 -5 v -20 -20 h -5 -5 v -5 -5 h -5 -5 v -5 -5 h -5 -5 v -5 -5 h -5 -5 v 5 5 h -5 -5 v 10 10 h -5 -5 v 15 15 h -5 -5 v 50 50 h 5 5 v 20 20 h 5 5 v 10 10 h -5 -5 v 5 5 h 10 10 v -5 -5 h 5 5 v -15 -15 h -5 -5 v -45 -45 h 5 5 v -5 -5 h 5 5 v 65 65 h -5 -5 v 10 10 H 106 91 Z m 100,-55 v -20 h -5 -5 v 20 20 h 5 5 z M 81,399 v -15 h -5 -5 v 15 15 h 5 5 z M 281,279 v -5 h 5 5 v 5 5 h -5 -5 z M 131,164 v -10 h 5 5 v 10 10 h -5 -5 z M 11,159 v -5 H 6 1 v -5 -5 h 5 5 v 5 5 h 10 10 v 5 5 H 21 11 Z m 80,-10 v -15 h 5 5 v 15 15 h -5 -5 z m 60,0 v -15 h 5 5 v 15 15 h -5 -5 z m 70,10 v -5 h 10 10 v -5 -5 h 5 5 v 5 5 h -5 -5 v 5 5 H 231 221 Z M 41,124 V 114 H 36 31 V 79 44 h 5 5 V 34 24 h 5 5 v 10 10 h -5 -5 v 35 35 h 5 5 v 10 10 h -5 -5 z m 60,-15 v -5 H 96 91 V 89 74 h 10 10 v 15 15 h 15 15 V 89 74 h 5 5 v 15 15 h -5 -5 v 5 5 H 121 101 Z M 91,59 v -5 h 5 5 v 5 5 h -5 -5 z m 60,0 v -5 h 5 5 v 5 5 h -5 -5 z M 81,34 V 24 h -5 -5 v -5 -5 h 5 5 v 5 5 h 5 5 v 10 10 h -5 -5 z m 80,0 V 24 h 5 5 v -5 -5 h 5 5 v 5 5 h -5 -5 v 10 10 h -5 -5 z M 51,9 V 4 h 5 5 v 5 5 H 56 51 Z M 191,9 V 4 h 5 5 v 5 5 h -5 -5 z"
         id="path9" />
      <path
         style="fill:#000000"
         d="m 91,459 v -5 h -5 -5 v -5 -5 h -5 -5 v -5 -5 h -5 -5 v -25 -25 h 5 5 v -50 -50 h 5 5 v -15 -15 h 5 5 v -10 -10 h 5 5 v -5 -5 H 91 81 v -5 -5 H 71 61 v -5 -5 h -5 -5 v -5 -5 h -5 -5 v -25 -25 h 5 5 v 25 25 h 5 5 v 5 5 h 10 10 v 5 5 h 45 45 v -5 -5 h 10 10 v -5 -5 h 5 5 v -25 -25 h 5 5 v 25 25 h -5 -5 v 5 5 h -5 -5 v 5 5 h -10 -10 v 5 5 h -10 -10 v 5 5 h 5 5 v 10 10 h 5 5 v 15 15 h 5 5 v 25 25 h 5 5 v 5 5 h 5 5 v 10 10 h 5 5 v 5 5 h -5 -5 v 5 5 h 15 15 v -5 -5 h 10 10 v -5 -5 h 5 5 v -5 -5 h 5 5 v -5 -5 h 5 5 v -5 -5 h 5 5 v 5 5 h -5 -5 v 5 5 h -5 -5 v 5 5 h -5 -5 v 5 5 h -5 -5 v 5 5 h -10 -10 v 5 5 h -10 -10 v 20 20 h -5 -5 v 5 5 h -15 -15 v 5 5 h -5 -5 v 5 5 h -15 -15 v -5 -5 h 15 15 v -5 -5 h -5 -5 v -10 -10 h 5 5 v -20 -20 h 5 5 v -50 -50 h -5 -5 v -15 -15 h -5 -5 v -10 -10 h -5 -5 v -5 -5 h -15 -15 v 5 5 h -5 -5 v 10 10 h -5 -5 v 15 15 h -5 -5 v 50 50 h 5 5 v 20 20 h 5 5 v 10 10 h -5 -5 v 5 5 h 15 15 v 5 5 H 106 91 Z m 80,-20 v -5 h 15 15 v -20 -20 h -5 -5 v -25 -25 h -5 -5 v 20 20 h -5 -5 v 20 20 h -5 -5 v 10 10 h 5 5 z M 91,429 v -5 h -5 -5 v -20 -20 h -5 -5 v 25 25 h 10 10 z m 130,-70 v -5 h 5 5 v -5 -5 h 5 5 v -5 -5 h 5 5 v -5 -5 h 5 5 v -5 -5 h 5 5 v -10 -10 h 5 5 v 10 10 h -5 -5 v 5 5 h -5 -5 v 5 5 h -5 -5 v 5 5 h -5 -5 v 5 5 h -5 -5 v 5 5 h -5 -5 z m 70,-40 v -5 h 5 5 v 5 5 h -5 -5 z m 10,-20 v -5 h 5 5 v -5 -5 h 5 5 v -10 -10 h 5 5 v -5 -5 h 5 5 v 5 5 h -5 -5 v 10 10 h -5 -5 v 5 5 h -5 -5 v 5 5 h -5 -5 z m -20,-20 v -5 h 5 5 v 5 5 h -5 -5 z m 10,-20 v -5 h 5 5 v -5 -5 h 5 5 v -5 -5 h 5 5 v -5 -5 h 10 10 v 5 5 h -10 -10 v 5 5 h -5 -5 v 5 5 h -5 -5 v 5 5 h -5 -5 z M 91,149 v -15 h 5 5 v 15 15 h -5 -5 z m 60,0 v -15 h 5 5 v 15 15 h -5 -5 z M 41,124 V 114 H 36 31 V 79 44 h 5 5 V 34 24 h 5 5 v 10 10 h -5 -5 v 35 35 h 5 5 v 10 10 h -5 -5 z m 160,0 v -10 h 5 5 V 79 44 h -5 -5 V 34 24 h 5 5 v 10 10 h 5 5 v 35 35 h -5 -5 v 10 10 h -5 -5 z m -90,-15 v -5 h -5 -5 V 89 74 h 5 5 v 15 15 h 15 15 V 89 74 h 5 5 v 15 15 h -5 -5 v 5 5 H 126 111 Z M 91,59 v -5 h 5 5 v 5 5 h -5 -5 z m 60,0 v -5 h 5 5 v 5 5 h -5 -5 z M 81,34 V 24 h -5 -5 v -5 -5 h 5 5 v 5 5 h 5 5 v 10 10 h -5 -5 z m 80,0 V 24 h 5 5 v -5 -5 h 5 5 v 5 5 h -5 -5 v 10 10 h -5 -5 z M 51,9 V 4 h 5 5 v 5 5 H 56 51 Z M 191,9 V 4 h 5 5 v 5 5 h -5 -5 z"
         id="path8" />
    </g>
  </g>
</svg>
