<svg xmlns="http://www.w3.org/2000/svg" width="100px" height="100px" viewBox="0 0 210 297" xml:space="preserve"><path style="fill:#000" d="M34.198 65.13v-1.852h-3.704V56.4h3.704v6.88h7.408V56.4h-3.704v-7.408h-3.704v-7.673H45.31v-3.704h-3.704V33.91h-3.704v-3.704h-3.704V26.5h-3.704v-3.968H26.5l.078-1.786.078-1.786h3.704l.078 1.774.078 1.774 1.774.078 1.774.078.078 1.918.078 1.918h3.68v3.705h3.705v3.704h3.704v3.704h3.704v3.68l1.919.079 1.918.077.078 1.786.078 1.786H37.902v3.97h3.704v7.408h3.704v6.88h-3.704v3.704h-7.408Zm-22.49-32.808V4.541h3.704v3.175h3.704v3.704h3.705v3.704h3.704v3.704H22.82v-3.704h-3.705V11.42h-3.704v41.275h3.704v-3.704h3.705v3.704h-3.705V56.4h-3.704v3.704h-3.704zm15.004 23.912c-.103-.103-.187-1.77-.187-3.703v-3.516l-1.786-.078-1.786-.078v-3.705l1.786-.078 1.786-.078v3.993h3.983l-.073 3.638-.074 3.638-1.73.077c-.953.042-1.816-.007-1.919-.11z"></path></svg>