<svg xmlns="http://www.w3.org/2000/svg" width="100px" height="100px" viewBox="0 0 210 297" xml:space="preserve"><path style="fill:#000" d="M32.427 72.051v-4.497H27.93v-8.996h-4.498V53h-4.498v-8.2h-4.498V31.306h8.854l2.32 2.31 2.32 2.309V8.816h13.494v8.996h4.761v4.498h8.997v4.498h8.995v4.498h8.996v27.252h-4.498v8.996h-4.498v8.995h-31.75zm27.253-2.248v-2.25h4.497v-8.994h4.498V35.804h-4.498v-4.498H59.68V40.3h-4.498V26.808h-4.498v8.996h-4.498V22.31h-4.762v9.525h-4.498V13.314h-4.498v31.485H27.93v-4.498h-4.498v-4.498h-4.498V44.8h4.499v4.761h4.498v8.997h4.497v8.996h4.498v4.497H59.68z"></path></svg>